# xmcd CD database file
#
# Track frame offsets:
#	150
#	14572
#	33705
#	48130
#
# Disc length: 892 seconds
#
# Revision: 3
# Processed by: cddbd v1.5PL3 Copyright (c) Steve Scherf et al.
# Submitted via: CDex 1.50Beta7
#
DISCID=2c037a04
DTITLE=MAHO堂 - おジャ魔女どれみ　ドッカ〜ン!
DYEAR=2002
DGENRE=Anime
TTITLE0=DANCE! おジャ魔女
TTITLE1=わたしのつばさ
TTITLE2=DANCE! おジャ魔女（オリジナル・カラオケ）
TTITLE3=わたしのつばさ（オリジナル・カラオケ）
EXTD=YEAR: 2002
EXTT0=
EXTT1=
EXTT2=
EXTT3=
PLAYORDER=
